<svg width="207" height="27" viewBox="0 0 207 27" fill="none" xmlns="http://www.w3.org/2000/svg">
<path d="M7.5 24.5L1 17.5L7.5 15L12 20L17.5 15L12 7.5V12.5L1 10L5.5 4.5" stroke="white" stroke-width="2" stroke-linecap="round" stroke-linejoin="round"/>
<path d="M32.798 21.176C31.6247 21.176 30.5027 21 29.432 20.648C28.3613 20.2813 27.518 19.812 26.902 19.24L27.716 17.524C28.3027 18.0373 29.0507 18.4627 29.96 18.8C30.8693 19.1373 31.8153 19.306 32.798 19.306C33.6927 19.306 34.4187 19.2033 34.976 18.998C35.5333 18.7927 35.944 18.514 36.208 18.162C36.472 17.7953 36.604 17.3847 36.604 16.93C36.604 16.402 36.428 15.9767 36.076 15.654C35.7387 15.3313 35.2913 15.0747 34.734 14.884C34.1913 14.6787 33.59 14.5027 32.93 14.356C32.27 14.2093 31.6027 14.0407 30.928 13.85C30.268 13.6447 29.6593 13.388 29.102 13.08C28.5593 12.772 28.1193 12.3613 27.782 11.848C27.4447 11.32 27.276 10.6453 27.276 9.824C27.276 9.032 27.4813 8.306 27.892 7.646C28.3173 6.97133 28.9627 6.436 29.828 6.04C30.708 5.62933 31.8227 5.424 33.172 5.424C34.0667 5.424 34.954 5.54133 35.834 5.776C36.714 6.01067 37.4767 6.348 38.122 6.788L37.396 8.548C36.736 8.108 36.0393 7.79267 35.306 7.602C34.5727 7.39667 33.8613 7.294 33.172 7.294C32.3067 7.294 31.5953 7.404 31.038 7.624C30.4807 7.844 30.07 8.13733 29.806 8.504C29.5567 8.87067 29.432 9.28133 29.432 9.736C29.432 10.2787 29.6007 10.7113 29.938 11.034C30.29 11.3567 30.7373 11.6133 31.28 11.804C31.8373 11.9947 32.446 12.1707 33.106 12.332C33.766 12.4787 34.426 12.6473 35.086 12.838C35.7607 13.0287 36.3693 13.278 36.912 13.586C37.4693 13.894 37.9167 14.3047 38.254 14.818C38.5913 15.3313 38.76 15.9913 38.76 16.798C38.76 17.5753 38.5473 18.3013 38.122 18.976C37.6967 19.636 37.0367 20.1713 36.142 20.582C35.262 20.978 34.1473 21.176 32.798 21.176ZM41.6661 21V9.34H43.7781V21H41.6661ZM42.7221 7.096C42.3114 7.096 41.9667 6.964 41.6881 6.7C41.4241 6.436 41.2921 6.11333 41.2921 5.732C41.2921 5.336 41.4241 5.006 41.6881 4.742C41.9667 4.478 42.3114 4.346 42.7221 4.346C43.1327 4.346 43.4701 4.478 43.7341 4.742C44.0127 4.99133 44.1521 5.30667 44.1521 5.688C44.1521 6.084 44.0201 6.42133 43.7561 6.7C43.4921 6.964 43.1474 7.096 42.7221 7.096ZM54.0366 9.23C54.9899 9.23 55.8259 9.41333 56.5446 9.78C57.2779 10.1467 57.8499 10.704 58.2606 11.452C58.6713 12.2 58.8766 13.146 58.8766 14.29V21H56.7646V14.532C56.7646 13.4027 56.4859 12.552 55.9286 11.98C55.3859 11.408 54.6159 11.122 53.6186 11.122C52.8706 11.122 52.2179 11.2687 51.6606 11.562C51.1033 11.8553 50.6706 12.288 50.3626 12.86C50.0693 13.432 49.9226 14.1433 49.9226 14.994V21H47.8106V9.34H49.8346V12.486L49.5046 11.65C49.8859 10.8873 50.4726 10.2933 51.2646 9.868C52.0566 9.44267 52.9806 9.23 54.0366 9.23ZM67.8892 25.4C66.8185 25.4 65.7772 25.246 64.7652 24.938C63.7679 24.6447 62.9539 24.2193 62.3232 23.662L63.3352 22.034C63.8779 22.5033 64.5452 22.87 65.3372 23.134C66.1292 23.4127 66.9579 23.552 67.8232 23.552C69.2019 23.552 70.2139 23.2293 70.8592 22.584C71.5045 21.9387 71.8272 20.956 71.8272 19.636V17.172L72.0472 14.862L71.9372 12.53V9.34H73.9392V19.416C73.9392 21.4693 73.4259 22.98 72.3992 23.948C71.3725 24.916 69.8692 25.4 67.8892 25.4ZM67.6252 20.516C66.4959 20.516 65.4839 20.2813 64.5892 19.812C63.7092 19.328 63.0052 18.6607 62.4772 17.81C61.9639 16.9593 61.7072 15.9767 61.7072 14.862C61.7072 13.7327 61.9639 12.75 62.4772 11.914C63.0052 11.0633 63.7092 10.4033 64.5892 9.934C65.4839 9.46467 66.4959 9.23 67.6252 9.23C68.6225 9.23 69.5319 9.43533 70.3532 9.846C71.1745 10.242 71.8272 10.858 72.3112 11.694C72.8099 12.53 73.0592 13.586 73.0592 14.862C73.0592 16.1233 72.8099 17.172 72.3112 18.008C71.8272 18.844 71.1745 19.4747 70.3532 19.9C69.5319 20.3107 68.6225 20.516 67.6252 20.516ZM67.8672 18.668C68.6445 18.668 69.3339 18.5067 69.9352 18.184C70.5365 17.8613 71.0059 17.414 71.3432 16.842C71.6952 16.27 71.8712 15.61 71.8712 14.862C71.8712 14.114 71.6952 13.454 71.3432 12.882C71.0059 12.31 70.5365 11.87 69.9352 11.562C69.3339 11.2393 68.6445 11.078 67.8672 11.078C67.0899 11.078 66.3932 11.2393 65.7772 11.562C65.1759 11.87 64.6992 12.31 64.3472 12.882C64.0099 13.454 63.8412 14.114 63.8412 14.862C63.8412 15.61 64.0099 16.27 64.3472 16.842C64.6992 17.414 65.1759 17.8613 65.7772 18.184C66.3932 18.5067 67.0899 18.668 67.8672 18.668ZM85.2127 21V18.536L85.1027 18.074V13.872C85.1027 12.9773 84.8387 12.288 84.3107 11.804C83.7973 11.3053 83.02 11.056 81.9787 11.056C81.2893 11.056 80.6147 11.1733 79.9547 11.408C79.2947 11.628 78.7373 11.9287 78.2827 12.31L77.4027 10.726C78.004 10.242 78.7227 9.87533 79.5587 9.626C80.4093 9.362 81.2967 9.23 82.2207 9.23C83.8193 9.23 85.0513 9.61867 85.9167 10.396C86.782 11.1733 87.2147 12.3613 87.2147 13.96V21H85.2127ZM81.3847 21.132C80.5193 21.132 79.7567 20.9853 79.0967 20.692C78.4513 20.3987 77.9527 19.9953 77.6007 19.482C77.2487 18.954 77.0727 18.36 77.0727 17.7C77.0727 17.0693 77.2193 16.4973 77.5127 15.984C77.8207 15.4707 78.312 15.06 78.9867 14.752C79.676 14.444 80.6 14.29 81.7587 14.29H85.4547V15.808H81.8467C80.7907 15.808 80.0793 15.984 79.7127 16.336C79.346 16.688 79.1627 17.1133 79.1627 17.612C79.1627 18.184 79.39 18.646 79.8447 18.998C80.2993 19.3353 80.93 19.504 81.7367 19.504C82.5287 19.504 83.218 19.328 83.8047 18.976C84.406 18.624 84.8387 18.1107 85.1027 17.436L85.5207 18.888C85.242 19.5773 84.7507 20.1273 84.0467 20.538C83.3427 20.934 82.4553 21.132 81.3847 21.132ZM97.3051 21.132C96.3371 21.132 95.4498 20.912 94.6431 20.472C93.8511 20.0173 93.2131 19.35 92.7291 18.47C92.2598 17.59 92.0251 16.49 92.0251 15.17C92.0251 13.85 92.2524 12.75 92.7071 11.87C93.1764 10.99 93.8071 10.33 94.5991 9.89C95.4058 9.45 96.3078 9.23 97.3051 9.23C98.4491 9.23 99.4611 9.47933 100.341 9.978C101.221 10.4767 101.918 11.1733 102.431 12.068C102.944 12.948 103.201 13.982 103.201 15.17C103.201 16.358 102.944 17.3993 102.431 18.294C101.918 19.1887 101.221 19.8853 100.341 20.384C99.4611 20.8827 98.4491 21.132 97.3051 21.132ZM91.1231 25.268V9.34H93.1471V12.486L93.0151 15.192L93.2351 17.898V25.268H91.1231ZM97.1291 19.284C97.8771 19.284 98.5444 19.1153 99.1311 18.778C99.7324 18.4407 100.202 17.964 100.539 17.348C100.891 16.7173 101.067 15.9913 101.067 15.17C101.067 14.334 100.891 13.6153 100.539 13.014C100.202 12.398 99.7324 11.9213 99.1311 11.584C98.5444 11.2467 97.8771 11.078 97.1291 11.078C96.3958 11.078 95.7284 11.2467 95.1271 11.584C94.5404 11.9213 94.0711 12.398 93.7191 13.014C93.3818 13.6153 93.2131 14.334 93.2131 15.17C93.2131 15.9913 93.3818 16.7173 93.7191 17.348C94.0711 17.964 94.5404 18.4407 95.1271 18.778C95.7284 19.1153 96.3958 19.284 97.1291 19.284ZM111.113 21.132C109.94 21.132 108.899 20.8753 107.989 20.362C107.08 19.8487 106.361 19.1447 105.833 18.25C105.305 17.3407 105.041 16.314 105.041 15.17C105.041 14.0113 105.305 12.9847 105.833 12.09C106.361 11.1953 107.08 10.4987 107.989 10C108.899 9.48667 109.94 9.23 111.113 9.23C112.272 9.23 113.306 9.48667 114.215 10C115.139 10.4987 115.858 11.1953 116.371 12.09C116.899 12.97 117.163 13.9967 117.163 15.17C117.163 16.3287 116.899 17.3553 116.371 18.25C115.858 19.1447 115.139 19.8487 114.215 20.362C113.306 20.8753 112.272 21.132 111.113 21.132ZM111.113 19.284C111.861 19.284 112.529 19.1153 113.115 18.778C113.717 18.4407 114.186 17.964 114.523 17.348C114.861 16.7173 115.029 15.9913 115.029 15.17C115.029 14.334 114.861 13.6153 114.523 13.014C114.186 12.398 113.717 11.9213 113.115 11.584C112.529 11.2467 111.861 11.078 111.113 11.078C110.365 11.078 109.698 11.2467 109.111 11.584C108.525 11.9213 108.055 12.398 107.703 13.014C107.351 13.6153 107.175 14.334 107.175 15.17C107.175 15.9913 107.351 16.7173 107.703 17.348C108.055 17.964 108.525 18.4407 109.111 18.778C109.698 19.1153 110.365 19.284 111.113 19.284ZM120.084 21V9.34H122.108V12.508L121.91 11.716C122.233 10.9093 122.775 10.2933 123.538 9.868C124.301 9.44267 125.239 9.23 126.354 9.23V11.276C126.266 11.2613 126.178 11.254 126.09 11.254C126.017 11.254 125.943 11.254 125.87 11.254C124.741 11.254 123.846 11.5913 123.186 12.266C122.526 12.9407 122.196 13.916 122.196 15.192V21H120.084ZM134.042 21.132C132.795 21.132 131.695 20.8753 130.742 20.362C129.803 19.8487 129.07 19.1447 128.542 18.25C128.028 17.3553 127.772 16.3287 127.772 15.17C127.772 14.0113 128.021 12.9847 128.52 12.09C129.033 11.1953 129.73 10.4987 130.61 10C131.504 9.48667 132.509 9.23 133.624 9.23C134.753 9.23 135.75 9.47933 136.616 9.978C137.481 10.4767 138.156 11.1807 138.64 12.09C139.138 12.9847 139.388 14.0333 139.388 15.236C139.388 15.324 139.38 15.4267 139.366 15.544C139.366 15.6613 139.358 15.7713 139.344 15.874H129.422V14.356H138.244L137.386 14.884C137.4 14.136 137.246 13.4687 136.924 12.882C136.601 12.2953 136.154 11.8407 135.582 11.518C135.024 11.1807 134.372 11.012 133.624 11.012C132.89 11.012 132.238 11.1807 131.666 11.518C131.094 11.8407 130.646 12.3027 130.324 12.904C130.001 13.4907 129.84 14.1653 129.84 14.928V15.28C129.84 16.0573 130.016 16.754 130.368 17.37C130.734 17.9713 131.24 18.4407 131.886 18.778C132.531 19.1153 133.272 19.284 134.108 19.284C134.797 19.284 135.42 19.1667 135.978 18.932C136.55 18.6973 137.048 18.3453 137.474 17.876L138.64 19.24C138.112 19.856 137.452 20.3253 136.66 20.648C135.882 20.9707 135.01 21.132 134.042 21.132ZM149.58 21.176C148.392 21.176 147.3 20.9853 146.302 20.604C145.305 20.208 144.44 19.658 143.706 18.954C142.973 18.2353 142.401 17.3993 141.99 16.446C141.58 15.4927 141.374 14.444 141.374 13.3C141.374 12.156 141.58 11.1073 141.99 10.154C142.401 9.20067 142.973 8.372 143.706 7.668C144.454 6.94933 145.327 6.39933 146.324 6.018C147.322 5.622 148.422 5.424 149.624 5.424C150.842 5.424 151.956 5.622 152.968 6.018C153.98 6.414 154.838 7.008 155.542 7.8L154.178 9.164C153.548 8.548 152.858 8.10067 152.11 7.822C151.377 7.52867 150.578 7.382 149.712 7.382C148.832 7.382 148.011 7.52867 147.248 7.822C146.5 8.11533 145.848 8.526 145.29 9.054C144.748 9.582 144.322 10.2127 144.014 10.946C143.721 11.6647 143.574 12.4493 143.574 13.3C143.574 14.136 143.721 14.9207 144.014 15.654C144.322 16.3727 144.748 17.0033 145.29 17.546C145.848 18.074 146.5 18.4847 147.248 18.778C147.996 19.0713 148.81 19.218 149.69 19.218C150.512 19.218 151.296 19.0933 152.044 18.844C152.807 18.58 153.511 18.1473 154.156 17.546L155.41 19.218C154.648 19.8633 153.753 20.3547 152.726 20.692C151.714 21.0147 150.666 21.176 149.58 21.176ZM153.298 18.932V13.212H155.41V19.218L153.298 18.932ZM164.221 21.132C163.223 21.132 162.343 20.9487 161.581 20.582C160.833 20.2153 160.246 19.658 159.821 18.91C159.41 18.1473 159.205 17.194 159.205 16.05V9.34H161.317V15.808C161.317 16.952 161.588 17.81 162.131 18.382C162.688 18.954 163.465 19.24 164.463 19.24C165.196 19.24 165.834 19.0933 166.377 18.8C166.919 18.492 167.337 18.052 167.631 17.48C167.924 16.8933 168.071 16.1893 168.071 15.368V9.34H170.183V21H168.181V17.854L168.511 18.69C168.129 19.4673 167.557 20.0687 166.795 20.494C166.032 20.9193 165.174 21.132 164.221 21.132ZM174.203 21V9.34H176.315V21H174.203ZM175.259 7.096C174.849 7.096 174.504 6.964 174.225 6.7C173.961 6.436 173.829 6.11333 173.829 5.732C173.829 5.336 173.961 5.006 174.225 4.742C174.504 4.478 174.849 4.346 175.259 4.346C175.67 4.346 176.007 4.478 176.271 4.742C176.55 4.99133 176.689 5.30667 176.689 5.688C176.689 6.084 176.557 6.42133 176.293 6.7C176.029 6.964 175.685 7.096 175.259 7.096ZM185.166 21.132C184.036 21.132 183.024 20.8827 182.13 20.384C181.25 19.8853 180.553 19.1887 180.04 18.294C179.526 17.3993 179.27 16.358 179.27 15.17C179.27 13.982 179.526 12.948 180.04 12.068C180.553 11.1733 181.25 10.4767 182.13 9.978C183.024 9.47933 184.036 9.23 185.166 9.23C186.148 9.23 187.036 9.45 187.828 9.89C188.62 10.33 189.25 10.99 189.72 11.87C190.204 12.75 190.446 13.85 190.446 15.17C190.446 16.49 190.211 17.59 189.742 18.47C189.287 19.35 188.664 20.0173 187.872 20.472C187.08 20.912 186.178 21.132 185.166 21.132ZM185.342 19.284C186.075 19.284 186.735 19.1153 187.322 18.778C187.923 18.4407 188.392 17.964 188.73 17.348C189.082 16.7173 189.258 15.9913 189.258 15.17C189.258 14.334 189.082 13.6153 188.73 13.014C188.392 12.398 187.923 11.9213 187.322 11.584C186.735 11.2467 186.075 11.078 185.342 11.078C184.594 11.078 183.926 11.2467 183.34 11.584C182.753 11.9213 182.284 12.398 181.932 13.014C181.58 13.6153 181.404 14.334 181.404 15.17C181.404 15.9913 181.58 16.7173 181.932 17.348C182.284 17.964 182.753 18.4407 183.34 18.778C183.926 19.1153 184.594 19.284 185.342 19.284ZM189.324 21V17.854L189.456 15.148L189.236 12.442V4.676H191.348V21H189.324ZM200.536 21.132C199.289 21.132 198.189 20.8753 197.236 20.362C196.297 19.8487 195.564 19.1447 195.036 18.25C194.522 17.3553 194.266 16.3287 194.266 15.17C194.266 14.0113 194.515 12.9847 195.014 12.09C195.527 11.1953 196.224 10.4987 197.104 10C197.998 9.48667 199.003 9.23 200.118 9.23C201.247 9.23 202.244 9.47933 203.11 9.978C203.975 10.4767 204.65 11.1807 205.134 12.09C205.632 12.9847 205.882 14.0333 205.882 15.236C205.882 15.324 205.874 15.4267 205.86 15.544C205.86 15.6613 205.852 15.7713 205.838 15.874H195.916V14.356H204.738L203.88 14.884C203.894 14.136 203.74 13.4687 203.418 12.882C203.095 12.2953 202.648 11.8407 202.076 11.518C201.518 11.1807 200.866 11.012 200.118 11.012C199.384 11.012 198.732 11.1807 198.16 11.518C197.588 11.8407 197.14 12.3027 196.818 12.904C196.495 13.4907 196.334 14.1653 196.334 14.928V15.28C196.334 16.0573 196.51 16.754 196.862 17.37C197.228 17.9713 197.734 18.4407 198.38 18.778C199.025 19.1153 199.766 19.284 200.602 19.284C201.291 19.284 201.914 19.1667 202.472 18.932C203.044 18.6973 203.542 18.3453 203.968 17.876L205.134 19.24C204.606 19.856 203.946 20.3253 203.154 20.648C202.376 20.9707 201.504 21.132 200.536 21.132Z" fill="white"/>
</svg>
